<?xml version="1.0" encoding="utf-8"?>
<!-- Generator: Adobe Illustrator 22.0.1, SVG Export Plug-In . SVG Version: 6.00 Build 0)  -->
<svg version="1.1" id="Capa_1" xmlns="http://www.w3.org/2000/svg" xmlns:xlink="http://www.w3.org/1999/xlink" x="0px" y="0px"
	 viewBox="0 0 407.9 376.1" style="enable-background:new 0 0 407.9 376.1;" xml:space="preserve">
<style type="text/css">
	.st0{fill:#00A0DF;}
	.st1{fill:#808080;}
</style>
<g>
	<path class="st0" d="M377.4,324.1c-41.3,2-78.6-8.6-111-35c-1.1-0.9-3.1-1.3-4.6-1.2c-38.3,4.7-75.1,0.1-109.9-17.2
		c-25.6-12.7-46.8-30.4-59.8-56.3c-17.9-35.7-14.5-70.3,8.4-102.7c19.1-27,46.1-43.7,77.4-52.9c53-15.6,104.2-11.1,152.2,17.3
		c24.2,14.3,42.9,34.1,52.6,61c12.4,34.5,5.6,66-16.2,94.8c-9.8,12.9-22,23.1-35.7,31.6c-1.5,0.9-2.9,1.7-2.4,4
		c3.6,16.8,10,32.1,23.4,43.7C359.2,317.7,368,321.5,377.4,324.1z M288.9,170.8c0.1,13.4,11,24.4,24.3,24.4
		c13.6,0,24.5-10.9,24.6-24.5c0.1-13.4-11.1-24.6-24.6-24.6C299.8,146.1,288.9,157.2,288.9,170.8z M209.3,170.6
		c0,13.6,11,24.6,24.5,24.5c13.4,0,24.2-10.9,24.4-24.3c0.1-13.5-10.9-24.7-24.4-24.7C220.3,146.1,209.4,157,209.3,170.6z
		 M129.7,170.5c0,13.7,10.8,24.6,24.5,24.6c13.4,0,24.3-11,24.3-24.4c0-13.7-10.9-24.6-24.5-24.6
		C140.8,146.1,129.7,157.1,129.7,170.5z"/>
	<path class="st1" d="M34.6,335.1c2.1-0.7,4.2-1.2,6.2-2c18-6.6,27.8-20.3,33.3-37.8c3.1-9.9,3-9.9-5.3-15.7
		c-18.8-13.2-33.5-29.9-40.4-52.2c-9-29.3-2.3-55.7,16.5-79.4c7.3-9.2,16-16.8,26.4-23.6c-0.4,1.5-0.6,2.4-1,3.3
		c-10.7,27.3-11,54.9-1,82.4c8,22,22,40,39.8,55.1c21.4,18.1,46,29.8,73,36.9c0.9,0.2,1.8,0.6,2.6,1.1c-11.8,2.2-23.7,3.2-35.7,2.4
		c-5.7-0.4-11.7-2.5-16.9-1.2c-5.1,1.3-9.3,6.2-14,9.3C92.8,330.3,64.8,337,34.6,335.1z"/>
</g>
</svg>
